<svg width="16" height="16" viewBox="0 0 16 16" fill="none" xmlns="http://www.w3.org/2000/svg">
<path fill-rule="evenodd" clip-rule="evenodd" d="M8 14.6667C11.6819 14.6667 14.6667 11.6819 14.6667 8C14.6667 4.3181 11.6819 1.33334 8 1.33334C4.3181 1.33334 1.33333 4.3181 1.33333 8C1.33333 11.6819 4.3181 14.6667 8 14.6667ZM11.8047 5.5286C11.5444 5.26825 11.1223 5.26825 10.8619 5.5286L6.66666 9.72334L5.13807 8.19526L5.07526 8.13981C4.81373 7.93646 4.43558 7.95494 4.19526 8.19526C3.93491 8.45561 3.93491 8.87772 4.19526 9.13807L6.19526 11.1381L6.25806 11.1935C6.51959 11.3969 6.89774 11.3784 7.13807 11.1381L11.8047 6.47141L11.8602 6.4086C12.0635 6.14707 12.0451 5.76892 11.8047 5.5286Z" fill="#0C6904"/>
</svg>
