<svg width="17" height="16" viewBox="0 0 17 16" fill="none" xmlns="http://www.w3.org/2000/svg">
<path fill-rule="evenodd" clip-rule="evenodd" d="M8.74998 14.6666C12.4319 14.6666 15.4166 11.6819 15.4166 7.99998C15.4166 4.31808 12.4319 1.33331 8.74998 1.33331C5.06808 1.33331 2.08331 4.31808 2.08331 7.99998C2.08331 11.6819 5.06808 14.6666 8.74998 14.6666ZM11.8883 5.80314C12.1483 5.54315 12.1483 5.12163 11.8883 4.86164C11.6283 4.60165 11.2068 4.60165 10.9468 4.86164L8.74998 7.05848L6.55314 4.86164C6.29315 4.60165 5.87163 4.60165 5.61164 4.86164C5.35165 5.12163 5.35165 5.54315 5.61164 5.80314L7.80848 7.99998L5.61164 10.1968C5.35165 10.4568 5.35165 10.8783 5.61164 11.1383C5.87163 11.3983 6.29315 11.3983 6.55314 11.1383L8.74998 8.94148L10.9468 11.1383C11.2068 11.3983 11.6283 11.3983 11.8883 11.1383C12.1483 10.8783 12.1483 10.4568 11.8883 10.1968L9.69148 7.99998L11.8883 5.80314Z" fill="#AA0000"/>
</svg>
