<svg width="12" height="12" viewBox="0 0 12 12" fill="none" xmlns="http://www.w3.org/2000/svg">
<path d="M8.92578 8.10547L6.82031 6L8.92578 3.89453L8.10547 3.07422L6 5.17969L3.89453 3.07422L3.07422 3.89453L5.17969 6L3.07422 8.10547L3.89453 8.92578L6 6.82031L8.10547 8.92578L8.92578 8.10547ZM1.87109 1.89844C3.01953 0.75 4.39583 0.175781 6 0.175781C7.60417 0.175781 8.97135 0.75 10.1016 1.89844C11.25 3.02865 11.8242 4.39583 11.8242 6C11.8242 7.60417 11.25 8.98047 10.1016 10.1289C8.97135 11.2591 7.60417 11.8242 6 11.8242C4.39583 11.8242 3.01953 11.2591 1.87109 10.1289C0.740885 8.98047 0.175781 7.60417 0.175781 6C0.175781 4.39583 0.740885 3.02865 1.87109 1.89844Z" fill="white"/>
</svg>
