<svg width="13" height="14" viewBox="0 0 13 14" fill="none" xmlns="http://www.w3.org/2000/svg">
<path fill-rule="evenodd" clip-rule="evenodd" d="M11.9639 5.11021C12.5941 4.62247 13 3.85862 13 2.99998C13 1.52722 11.8061 0.333313 10.3333 0.333313C9.20412 0.333313 8.23887 1.03514 7.84995 2.02637C7.68011 2.00893 7.50776 2 7.33331 2C5.55147 2 3.98733 2.93206 3.10183 4.33522C3.06804 4.33395 3.03408 4.33331 2.99998 4.33331C1.52722 4.33331 0.333313 5.52722 0.333313 6.99998C0.333313 8.47274 1.52722 9.66665 2.99998 9.66665C3.03407 9.66665 3.06802 9.66601 3.1018 9.66474C3.9873 11.0679 5.55146 12 7.33331 12C7.50776 12 7.68012 11.9911 7.84997 11.9736C8.2389 12.9648 9.20413 13.6666 10.3333 13.6666C11.8061 13.6666 13 12.4727 13 11C13 10.1413 12.5941 9.3775 11.9639 8.88976C12.202 8.30674 12.3333 7.6687 12.3333 7C12.3333 6.33129 12.202 5.69324 11.9639 5.11021ZM10.7379 8.36382C10.907 7.94223 11 7.48197 11 6.99998C11 6.51799 10.907 6.05773 10.7379 5.63614C10.606 5.65623 10.4709 5.66665 10.3333 5.66665C8.97931 5.66665 7.86101 4.65755 7.68944 3.35039C7.57225 3.33909 7.45345 3.33331 7.33329 3.33331C6.15512 3.33331 5.10674 3.88899 4.43592 4.75255C5.17606 5.22643 5.66665 6.05591 5.66665 6.99998C5.66665 7.94405 5.17606 8.77353 4.43592 9.24741C5.10674 10.111 6.15512 10.6666 7.33329 10.6666C7.45345 10.6666 7.57225 10.6609 7.68945 10.6496C7.86102 9.34241 8.97931 8.33331 10.3333 8.33331C10.4709 8.33331 10.606 8.34373 10.7379 8.36382Z" fill="#006281"/>
</svg>
