<svg width="161" height="19" viewBox="0 0 161 19" fill="none" xmlns="http://www.w3.org/2000/svg">
<path d="M60.6619 3.04007H57.6757V7.94933H52.8049V10.9604H57.6757V15.8712H60.6619V10.9604H65.5327V7.94933H60.6619V3.04007Z" fill="#22242B"/>
<path d="M42.4369 11.1684L33.7778 0.277405H30.165V18.7339H34.4028V8.30414L42.6946 18.7339H46.6731V0.277405H42.4369V11.1684Z" fill="#22242B"/>
<path d="M24.7178 0.277405H20.0532V18.7355H24.7178V0.277405Z" fill="#22242B"/>
<path d="M16.3824 0.277405H10.6209L4.66457 8.25415V0.277405H0V18.7339H4.66457V13.8956L6.42989 11.8442L11.0494 18.7339H16.6498L9.5788 8.1848L16.3824 0.277405Z" fill="#22242B"/>
<path d="M79.9872 4.0174C82.0698 4.0174 83.5307 4.96893 84.3925 6.45429L87.9811 4.16739C86.1948 1.28699 83.7852 0 79.9566 0C75.2856 0 70.4197 3.42713 70.4197 9.4992C70.4197 15.5713 75.3452 18.9984 80.0146 18.9984C83.7256 18.9984 86.1948 17.7114 87.9811 14.831L84.539 12.6151C83.6773 14.102 82.1069 15.0826 79.9872 15.0826C77.0896 15.0826 75.0665 12.7941 75.0665 9.49758C75.0665 6.20109 77.0896 4.0174 79.9872 4.0174Z" fill="#22242B"/>
<path d="M124.695 7.04294C124.695 3.30294 122.052 0.272552 118.016 0.272552L109.865 0.275778V18.7339H114.53V13.8149H116.924L120.222 18.7355H125.47L121.548 12.8844C123.521 11.7071 124.695 9.53306 124.695 7.04294ZM117.015 10.0766H114.532V4.00933H117.015C118.808 4.00933 120.103 5.24794 120.103 7.04294C120.103 8.83957 118.808 10.0766 117.015 10.0766Z" fill="#22242B"/>
<path d="M96.6111 0.277405L88.8701 18.7355H93.5814L94.5688 16.1277H101.609L102.596 18.7355H107.309L99.5684 0.277405H96.6111ZM95.8138 12.8376L98.0897 6.82685L100.366 12.8376H95.8138Z" fill="#22242B"/>
<path d="M152.259 0.277405H149.302L141.561 18.7355H146.274L147.261 16.1277H154.301L155.289 18.7355H160.002L152.259 0.277405ZM148.504 12.8376L150.78 6.82685L153.056 12.8376H148.504Z" fill="#22242B"/>
<path d="M142.292 0.277405H127.549V4.00612H132.588V18.7339H137.252V4.00612H142.292V0.277405Z" fill="#22242B"/>
</svg>
