<svg width="16" height="12" viewBox="0 0 16 12" fill="none" xmlns="http://www.w3.org/2000/svg">
<path fill-rule="evenodd" clip-rule="evenodd" d="M10.6129 0.209705L10.7071 0.292893L15.7071 5.29289C16.0676 5.65338 16.0953 6.22061 15.7903 6.6129L15.7071 6.70711L10.7071 11.7071C10.3166 12.0976 9.68342 12.0976 9.29289 11.7071C8.93241 11.3466 8.90468 10.7794 9.2097 10.3871L9.29289 10.2929L12.585 7H1C0.447715 7 0 6.55228 0 6C0 5.44772 0.447715 5 1 5H12.585L9.29289 1.70711C8.93241 1.34662 8.90468 0.779392 9.2097 0.387101L9.29289 0.292893C9.65338 -0.0675907 10.2206 -0.0953203 10.6129 0.209705Z" fill="#006281"/>
</svg>
